<svg width="48" height="48" viewBox="0 0 48 48" fill="none" xmlns="http://www.w3.org/2000/svg">
<path d="M12.984 35.016L10.44 37.56C6.96005 34.104 4.80005 29.304 4.80005 24C4.80005 18.696 6.96005 13.896 10.416 10.416L12.96 12.96C10.152 15.792 8.40005 19.704 8.40005 24C8.40005 28.296 10.152 32.208 12.984 35.016ZM39.6001 24C39.6001 28.296 37.8481 32.208 35.0161 35.016L37.56 37.56C41.04 34.104 43.2001 29.304 43.2001 24C43.2001 18.696 41.0401 13.896 37.584 10.416L35.0401 12.96C37.8481 15.792 39.6001 19.704 39.6001 24ZM32.4 24C32.4 26.304 31.4641 28.416 29.9281 29.928L32.472 32.472C34.656 30.312 36.0001 27.312 36.0001 24C36.0001 20.688 34.656 17.688 32.496 15.504L29.952 18.048C31.464 19.584 32.4 21.696 32.4 24ZM15.6 24C15.6 21.696 16.536 19.584 18.072 18.072L15.504 15.504C13.344 17.688 12 20.688 12 24C12 27.312 13.344 30.312 15.504 32.496L18.048 29.952C16.536 28.416 15.6 26.304 15.6 24ZM24 19.8C21.672 19.8 19.8 21.672 19.8 24C19.8 26.328 21.672 28.2 24 28.2C26.328 28.2 28.2 26.328 28.2 24C28.2 21.672 26.328 19.8 24 19.8Z" fill="black" fill-opacity="0.8"/>
</svg>
