<svg width="40" height="40" viewBox="0 0 40 40" fill="none" xmlns="http://www.w3.org/2000/svg">
<path d="M32.5001 20C32.5001 19.6167 32.4834 19.25 32.4501 18.8667L35.5501 16.5167C36.2167 16.0167 36.4001 15.0834 35.9834 14.35L32.8667 8.96671C32.4501 8.23337 31.5501 7.93337 30.7834 8.26671L27.2001 9.78337C26.5834 9.35004 25.9334 8.96671 25.2501 8.65004L24.7667 4.80004C24.6667 3.96671 23.9501 3.33337 23.1167 3.33337H16.9001C16.0501 3.33337 15.3334 3.96671 15.2334 4.80004L14.7501 8.65004C14.0667 8.96671 13.4167 9.35004 12.8001 9.78337L9.21672 8.26671C8.45005 7.93337 7.55005 8.23337 7.13339 8.96671L4.01672 14.3667C3.60005 15.1 3.78339 16.0167 4.45005 16.5334L7.55005 18.8834C7.51672 19.25 7.50005 19.6167 7.50005 20C7.50005 20.3834 7.51672 20.75 7.55005 21.1334L4.45005 23.4834C3.78339 23.9834 3.60005 24.9167 4.01672 25.65L7.13339 31.0334C7.55005 31.7667 8.45005 32.0667 9.21672 31.7334L12.8001 30.2167C13.4167 30.65 14.0667 31.0334 14.7501 31.35L15.2334 35.2C15.3334 36.0334 16.0501 36.6667 16.8834 36.6667H23.1001C23.9334 36.6667 24.6501 36.0334 24.7501 35.2L25.2334 31.35C25.9167 31.0334 26.5667 30.65 27.1834 30.2167L30.7667 31.7334C31.5334 32.0667 32.4334 31.7667 32.85 31.0334L35.9667 25.65C36.3834 24.9167 36.2001 24 35.5334 23.4834L32.4334 21.1334C32.4834 20.75 32.5001 20.3834 32.5001 20ZM20.0667 25.8334C16.8501 25.8334 14.2334 23.2167 14.2334 20C14.2334 16.7834 16.8501 14.1667 20.0667 14.1667C23.2834 14.1667 25.9001 16.7834 25.9001 20C25.9001 23.2167 23.2834 25.8334 20.0667 25.8334Z" fill="white"/>
</svg>
