<svg width="48" height="48" viewBox="0 0 48 48" fill="none" xmlns="http://www.w3.org/2000/svg">
<path d="M35.04 20.48L34.68 19.08C34.4133 18.9733 34.14 18.8267 33.86 18.64C33.58 18.4533 33.3467 18.2533 33.16 18.04L31.4 18.68L30.6 17.28L32 16.16C31.9467 16.0267 31.9 15.88 31.86 15.72C31.82 15.56 31.8 15.4 31.8 15.24C31.8 15.08 31.82 14.92 31.86 14.76C31.9 14.6 31.9467 14.4533 32 14.32L30.6 13.2L31.4 11.8L33.16 12.44C33.3467 12.2267 33.58 12.02 33.86 11.82C34.14 11.62 34.4133 11.48 34.68 11.4L35.04 10H36.56L36.92 11.4C37.1867 11.48 37.46 11.62 37.74 11.82C38.02 12.02 38.2533 12.2267 38.44 12.44L40.2 11.8L41 13.2L39.6 14.32C39.6533 14.4533 39.7 14.6 39.74 14.76C39.78 14.92 39.8 15.08 39.8 15.24C39.8 15.4 39.78 15.56 39.74 15.72C39.7 15.88 39.6533 16.0267 39.6 16.16L41 17.28L40.2 18.68L38.44 18.04C38.2533 18.2533 38.02 18.4533 37.74 18.64C37.46 18.8267 37.1867 18.9733 36.92 19.08L36.56 20.48H35.04ZM35.8 17.56C36.4667 17.56 37.02 17.34 37.46 16.9C37.9 16.46 38.12 15.9067 38.12 15.24C38.12 14.5733 37.9 14.02 37.46 13.58C37.02 13.14 36.4667 12.92 35.8 12.92C35.1333 12.92 34.58 13.14 34.14 13.58C33.7 14.02 33.48 14.5733 33.48 15.24C33.48 15.9067 33.7 16.46 34.14 16.9C34.58 17.34 35.1333 17.56 35.8 17.56ZM30.72 29.16L30.64 28C30.4533 27.8933 30.26 27.7733 30.06 27.64C29.86 27.5067 29.68 27.3733 29.52 27.24L28.48 27.8L27.6 26.52L28.64 25.76C28.5867 25.6533 28.56 25.5533 28.56 25.46C28.56 25.3667 28.56 25.2667 28.56 25.16C28.56 25.0533 28.56 24.9533 28.56 24.86C28.56 24.7667 28.5867 24.6667 28.64 24.56L27.6 23.8L28.48 22.52L29.52 23.08C29.7067 22.9467 29.8933 22.8133 30.08 22.68C30.2667 22.5467 30.4533 22.4267 30.64 22.32L30.72 21.16H32.32L32.4 22.32C32.5867 22.4267 32.7733 22.5467 32.96 22.68C33.1467 22.8133 33.3333 22.9467 33.52 23.08L34.56 22.52L35.44 23.8L34.4 24.56C34.4533 24.6667 34.48 24.7667 34.48 24.86C34.48 24.9533 34.48 25.0533 34.48 25.16C34.48 25.2667 34.48 25.3667 34.48 25.46C34.48 25.5533 34.4533 25.6533 34.4 25.76L35.44 26.52L34.56 27.8L33.52 27.24C33.36 27.3733 33.18 27.5067 32.98 27.64C32.78 27.7733 32.5867 27.8933 32.4 28L32.32 29.16H30.72ZM31.52 26.68C31.9467 26.68 32.3067 26.5333 32.6 26.24C32.8933 25.9467 33.04 25.5867 33.04 25.16C33.04 24.7333 32.8933 24.3733 32.6 24.08C32.3067 23.7867 31.9467 23.64 31.52 23.64C31.0933 23.64 30.7333 23.7867 30.44 24.08C30.1467 24.3733 30 24.7333 30 25.16C30 25.5867 30.1467 25.9467 30.44 26.24C30.7333 26.5333 31.0933 26.68 31.52 26.68ZM18.64 26.6C16.88 26.6 15.44 26.0267 14.32 24.88C13.2 23.7333 12.64 22.3067 12.64 20.6H12.24C12.0267 20.6 11.84 20.52 11.68 20.36C11.52 20.2 11.44 20.0133 11.44 19.8C11.44 19.5867 11.52 19.4 11.68 19.24C11.84 19.08 12.0267 19 12.24 19H12.64C12.64 17.9333 12.9067 16.9733 13.44 16.12C13.9733 15.2667 14.6667 14.5733 15.52 14.04V15.6C15.52 15.76 15.58 15.9 15.7 16.02C15.82 16.14 15.96 16.2 16.12 16.2C16.3067 16.2 16.4533 16.14 16.56 16.02C16.6667 15.9 16.72 15.76 16.72 15.6V13.52C16.9333 13.4667 17.2267 13.42 17.6 13.38C17.9733 13.34 18.3333 13.32 18.68 13.32C19.0267 13.32 19.3867 13.34 19.76 13.38C20.1333 13.42 20.4267 13.4667 20.64 13.52V15.6C20.64 15.76 20.6933 15.9 20.8 16.02C20.9067 16.14 21.0533 16.2 21.24 16.2C21.4 16.2 21.54 16.14 21.66 16.02C21.78 15.9 21.84 15.76 21.84 15.6V14.04C22.6933 14.5733 23.3733 15.2667 23.88 16.12C24.3867 16.9733 24.64 17.9333 24.64 19H25.04C25.2533 19 25.44 19.08 25.6 19.24C25.76 19.4 25.84 19.5867 25.84 19.8C25.84 20.0133 25.76 20.2 25.6 20.36C25.44 20.52 25.2533 20.6 25.04 20.6H24.64C24.64 22.3067 24.08 23.7333 22.96 24.88C21.84 26.0267 20.4 26.6 18.64 26.6ZM18.64 24.2C19.76 24.2 20.64 23.8667 21.28 23.2C21.92 22.5333 22.24 21.6667 22.24 20.6H15.04C15.04 21.6667 15.36 22.5333 16 23.2C16.64 23.8667 17.52 24.2 18.64 24.2ZM6 38.8V35.12C6 34.2133 6.21333 33.46 6.64 32.86C7.06667 32.26 7.66667 31.7733 8.44 31.4C9.88 30.7067 11.42 30.1333 13.06 29.68C14.7 29.2267 16.56 29 18.64 29C20.72 29 22.58 29.2267 24.22 29.68C25.86 30.1333 27.4 30.7067 28.84 31.4C29.6133 31.7733 30.2133 32.26 30.64 32.86C31.0667 33.46 31.28 34.2133 31.28 35.12V38.8H6Z" fill="black"/>
</svg>
