<svg width="48" height="48" viewBox="0 0 48 48" fill="none" xmlns="http://www.w3.org/2000/svg">
<path d="M31.2 21.6C32.04 21.6 32.832 21.744 33.6 21.936V14.832L21.6 9.59998L9.60001 14.832V22.68C9.60001 29.952 14.712 36.744 21.6 38.4C22.44 38.208 23.28 37.92 24.048 37.56C22.536 35.856 21.6 33.648 21.6 31.2C21.6 25.896 25.896 21.6 31.2 21.6Z" fill="#303030"/>
<path d="M31.2 24C27.216 24 24 27.216 24 31.2C24 35.184 27.216 38.4 31.2 38.4C35.184 38.4 38.4 35.184 38.4 31.2C38.4 27.216 35.184 24 31.2 24ZM31.2 26.472C32.328 26.472 33.216 27.384 33.216 28.488C33.216 29.592 32.304 30.504 31.2 30.504C30.096 30.504 29.184 29.592 29.184 28.488C29.184 27.384 30.072 26.472 31.2 26.472ZM31.2 36.144C29.52 36.144 28.056 35.304 27.168 34.056C27.264 32.76 29.88 32.112 31.2 32.112C32.52 32.112 35.136 32.76 35.232 34.056C34.344 35.328 32.88 36.144 31.2 36.144Z" fill="#303030"/>
</svg>
